<svg width="15" height="20" viewBox="0 0 15 20" fill="none" xmlns="http://www.w3.org/2000/svg">
<path d="M7.75 20C7.51667 20 7.31667 19.9333 7.15 19.8C6.98333 19.6667 6.85833 19.4917 6.775 19.275C6.45833 18.3417 6.05833 17.4667 5.575 16.65C5.10833 15.8333 4.45 14.875 3.6 13.775C2.75 12.675 2.05833 11.625 1.525 10.625C1.00833 9.625 0.75 8.41667 0.75 7C0.75 5.05 1.425 3.4 2.775 2.05C4.14167 0.683333 5.8 0 7.75 0C9.7 0 11.35 0.683333 12.7 2.05C14.0667 3.4 14.75 5.05 14.75 7C14.75 8.51667 14.4583 9.78333 13.875 10.8C13.3083 11.8 12.65 12.7917 11.9 13.775C11 14.975 10.3167 15.975 9.85 16.775C9.4 17.5583 9.025 18.3917 8.725 19.275C8.64167 19.5083 8.50833 19.6917 8.325 19.825C8.15833 19.9417 7.96667 20 7.75 20ZM7.75 9.5C8.45 9.5 9.04167 9.25833 9.525 8.775C10.0083 8.29167 10.25 7.7 10.25 7C10.25 6.3 10.0083 5.70833 9.525 5.225C9.04167 4.74167 8.45 4.5 7.75 4.5C7.05 4.5 6.45833 4.74167 5.975 5.225C5.49167 5.70833 5.25 6.3 5.25 7C5.25 7.7 5.49167 8.29167 5.975 8.775C6.45833 9.25833 7.05 9.5 7.75 9.5Z" fill="#4A4459"/>
</svg>
