<svg width="15" height="20" viewBox="0 0 15 20" fill="none" xmlns="http://www.w3.org/2000/svg">
<path d="M2.49375 19.5L5.56875 5.75814C5.66875 5.33101 5.89375 5.01066 6.24375 4.79709C6.59375 4.58353 6.96042 4.47674 7.34375 4.47674C7.72708 4.47674 8.08125 4.55039 8.40625 4.69767C8.73125 4.84496 8.99375 5.06589 9.19375 5.36047L10.1938 6.77442C10.4938 7.20155 10.8813 7.58818 11.3562 7.9343C11.8313 8.28043 12.3771 8.5345 12.9938 8.69651V7.12791H14.4938V19.5H12.9938V10.5302C12.1938 10.3682 11.4521 10.1105 10.7688 9.75698C10.0854 9.40349 9.49375 8.96899 8.99375 8.45349L8.39375 11.1047L10.4938 12.8721V19.5H8.49375V14.1977L6.39375 12.4302L4.59375 19.5H2.49375ZM2.91875 10.7733L0.79375 10.4198C0.527083 10.3756 0.31875 10.2541 0.16875 10.0552C0.01875 9.8564 -0.03125 9.63178 0.01875 9.3814L0.76875 5.91279C0.86875 5.44147 1.15208 5.06957 1.61875 4.79709C2.08542 4.52461 2.58542 4.43256 3.11875 4.52093L4.26875 4.71977L2.91875 10.7733ZM8.99375 4.03488C8.44375 4.03488 7.97292 3.86182 7.58125 3.5157C7.18958 3.16957 6.99375 2.75349 6.99375 2.26744C6.99375 1.7814 7.18958 1.36531 7.58125 1.01919C7.97292 0.673062 8.44375 0.5 8.99375 0.5C9.54375 0.5 10.0146 0.673062 10.4062 1.01919C10.7979 1.36531 10.9938 1.7814 10.9938 2.26744C10.9938 2.75349 10.7979 3.16957 10.4062 3.5157C10.0146 3.86182 9.54375 4.03488 8.99375 4.03488Z" fill="black"/>
</svg>
