<svg width="25" height="20" viewBox="0 0 25 20" fill="none" xmlns="http://www.w3.org/2000/svg">
<g clip-path="url(#clip0_83_2107)">
<path d="M1.3158 20V5H3.11005V15H10.2871V7H17.4641C18.451 7 19.2958 7.39167 19.9985 8.175C20.7013 8.95833 21.0526 9.9 21.0526 11V20H19.2584V17H3.11005V20H1.3158ZM6.69857 14C5.95096 14 5.3155 13.7083 4.79217 13.125C4.26885 12.5417 4.00718 11.8333 4.00718 11C4.00718 10.1667 4.26885 9.45833 4.79217 8.875C5.3155 8.29167 5.95096 8 6.69857 8C7.44618 8 8.08165 8.29167 8.60497 8.875C9.1283 9.45833 9.38996 10.1667 9.38996 11C9.38996 11.8333 9.1283 12.5417 8.60497 13.125C8.08165 13.7083 7.44618 14 6.69857 14ZM12.0813 15H19.2584V11C19.2584 10.45 19.0827 9.97917 18.7313 9.5875C18.3799 9.19583 17.9575 9 17.4641 9H12.0813V15ZM6.69857 12C6.95276 12 7.16583 11.9042 7.33778 11.7125C7.50973 11.5208 7.5957 11.2833 7.5957 11C7.5957 10.7167 7.50973 10.4792 7.33778 10.2875C7.16583 10.0958 6.95276 10 6.69857 10C6.44439 10 6.23132 10.0958 6.05937 10.2875C5.88742 10.4792 5.80144 10.7167 5.80144 11C5.80144 11.2833 5.88742 11.5208 6.05937 11.7125C6.23132 11.9042 6.44439 12 6.69857 12Z" fill="black"/>
</g>
<defs>
<clipPath id="clip0_83_2107">
<rect width="25" height="19" fill="white" transform="translate(0 0.5)"/>
</clipPath>
</defs>
</svg>
